<svg width="20" height="20" viewBox="0 0 20 20" fill="none" xmlns="http://www.w3.org/2000/svg">
<path fill-rule="evenodd" clip-rule="evenodd" d="M14.9991 16.0732C13.4113 17.4173 11.3572 18.2278 9.11392 18.2278C4.08044 18.2278 0 14.1474 0 9.11392C0 4.08044 4.08044 0 9.11392 0C14.1474 0 18.2278 4.08044 18.2278 9.11392C18.2278 11.3572 17.4173 13.4113 16.0732 14.9991L19.7776 18.7035C20.0741 19.0001 20.0741 19.4809 19.7776 19.7776C19.4809 20.0741 19.0001 20.0741 18.7035 19.7776L14.9991 16.0732ZM16.7089 9.11392C16.7089 13.3085 13.3085 16.7089 9.11392 16.7089C4.91936 16.7089 1.51899 13.3085 1.51899 9.11392C1.51899 4.91936 4.91936 1.51899 9.11392 1.51899C13.3085 1.51899 16.7089 4.91936 16.7089 9.11392Z" fill="#687684"/>
</svg>
