<svg width="13" height="13" viewBox="0 0 13 13" fill="none" xmlns="http://www.w3.org/2000/svg">
<path d="M12.7071 1.70711C13.0976 1.31658 13.0976 0.683418 12.7071 0.292893C12.3166 -0.097631 11.6834 -0.0976311 11.2929 0.292893L6.5 5.08579L1.70711 0.292893C1.31658 -0.0976311 0.683419 -0.0976311 0.292894 0.292893C-0.0976299 0.683418 -0.0976299 1.31658 0.292894 1.70711L5.08579 6.5L0.292894 11.2929C-0.0976312 11.6834 -0.0976312 12.3166 0.292894 12.7071C0.683417 13.0976 1.31658 13.0976 1.70711 12.7071L6.5 7.91421L11.2929 12.7071C11.6834 13.0976 12.3166 13.0976 12.7071 12.7071C13.0976 12.3166 13.0976 11.6834 12.7071 11.2929L7.91421 6.5L12.7071 1.70711Z" fill="white"/>
</svg>
