<svg width="22" height="22" viewBox="0 0 22 22" fill="none" xmlns="http://www.w3.org/2000/svg">
<path fill-rule="evenodd" clip-rule="evenodd" d="M11 0H10.2326C9.24358 0 8.44186 0.801723 8.44186 1.7907V2.60079C8.44186 3.42125 7.44988 3.83214 6.86973 3.25198L6.29692 2.67918C5.59761 1.97986 4.4638 1.97986 3.76449 2.67918L2.67917 3.7645C1.97986 4.46381 1.97986 5.59762 2.67917 6.29693L3.25197 6.86973C3.83212 7.44989 3.42123 8.44186 2.60077 8.44186H1.7907C0.801722 8.44186 0 9.24358 0 10.2326V11.7674C0 12.7564 0.801723 13.5581 1.7907 13.5581H2.60079C3.42125 13.5581 3.83214 14.5501 3.25198 15.1303L2.67916 15.7031C1.97985 16.4024 1.97985 17.5362 2.67916 18.2355L3.76449 19.3208C4.4638 20.0202 5.5976 20.0202 6.29692 19.3208L6.86973 18.748C7.44989 18.1679 8.44186 18.5788 8.44186 19.3992V20.2093C8.44186 21.1983 9.24358 22 10.2326 22H11H11.7674C12.7564 22 13.5581 21.1983 13.5581 20.2093V19.3992C13.5581 18.5788 14.5501 18.1679 15.1303 18.748L15.7031 19.3208C16.4024 20.0202 17.5362 20.0202 18.2355 19.3208L19.3208 18.2355C20.0202 17.5362 20.0202 16.4024 19.3208 15.7031L18.748 15.1303C18.1679 14.5501 18.5788 13.5581 19.3992 13.5581H20.2093C21.1983 13.5581 22 12.7564 22 11.7674V10.2326C22 9.24358 21.1983 8.44186 20.2093 8.44186H19.3992C18.5788 8.44186 18.1679 7.44989 18.748 6.86973L19.3208 6.29693C20.0201 5.59762 20.0201 4.46381 19.3208 3.7645L18.2355 2.67918C17.5362 1.97986 16.4024 1.97986 15.7031 2.67918L15.1303 3.25198C14.5501 3.83214 13.5581 3.42125 13.5581 2.60079V1.7907C13.5581 0.801723 12.7564 0 11.7674 0H11ZM11.7674 20.4651H11H10.2326C10.0913 20.4651 9.97674 20.3506 9.97674 20.2093L9.80313 18.7866C9.7152 18.066 9.26574 17.44 8.61105 17.1264C7.88091 16.7766 7.01549 16.8718 6.37884 17.372L5.37209 18.1628C5.27219 18.2627 4.94971 18.3354 4.84981 18.2355L3.76449 17.1502C3.66458 17.0503 3.66458 16.8883 3.76449 16.7884L4.31755 16.2052C4.95894 15.5287 5.14231 14.5383 4.78559 13.6771C4.48095 12.9416 3.82621 12.4092 3.04409 12.2609L1.7907 12.0233C1.64942 12.0233 1.53488 11.9087 1.53488 11.7674V10.2326C1.53488 10.0913 1.64942 9.97674 1.7907 9.97674H2.94471C3.79466 9.97674 4.56091 9.46475 4.88618 8.67951C5.21144 7.89426 5.05096 6.97074 4.55012 6.28403C4.37558 6.04472 4.20574 5.80542 4.06384 5.60306C3.84429 5.28995 3.87712 4.86724 4.14037 4.58985C4.2761 4.44683 4.42653 4.28934 4.56729 4.14416C4.83023 3.87297 5.24332 3.84204 5.55309 4.05819C5.79492 4.22694 6.09174 4.43435 6.3818 4.63779C7.02795 5.09098 7.86332 5.18788 8.59248 4.88585C9.45012 4.5306 10.0043 3.6881 9.9908 2.75989L9.97674 1.7907C9.97674 1.64942 10.0913 1.53488 10.2326 1.53488L11 1.53488L11.7674 1.53488C11.9087 1.53488 12.0233 1.64942 12.0233 1.7907L12.0092 2.75989C11.9957 3.6881 12.5499 4.5306 13.4075 4.88585C14.1367 5.18788 14.972 5.09098 15.6182 4.63779C15.9083 4.43435 16.2051 4.22694 16.4469 4.05819C16.7567 3.84204 17.1698 3.87297 17.4327 4.14416C17.5735 4.28934 17.7239 4.44683 17.8596 4.58985C18.1229 4.86724 18.1557 5.28995 17.9362 5.60306C17.7943 5.80542 17.6244 6.04472 17.4499 6.28403C16.949 6.97074 16.7886 7.89426 17.1138 8.67951C17.4391 9.46475 18.2053 9.97674 19.0553 9.97674H20.2093C20.3506 9.97674 20.4651 10.0913 20.4651 10.2326V11.7674C20.4651 11.9087 20.3506 12.0233 20.2093 12.0233L18.9559 12.2609C18.1738 12.4092 17.519 12.9416 17.2144 13.6771C16.8577 14.5383 17.0411 15.5287 17.6825 16.2052L18.2355 16.7884C18.3354 16.8883 18.3354 17.0503 18.2355 17.1502L17.1502 18.2355C17.0503 18.3354 16.7278 18.2627 16.6279 18.1628L15.6212 17.372C14.9845 16.8718 14.1191 16.7766 13.3889 17.1264C12.7343 17.44 12.2848 18.066 12.1969 18.7866L12.0233 20.2093C12.0233 20.3506 11.9087 20.4651 11.7674 20.4651ZM13.6605 11C13.6605 12.4128 12.5152 13.5581 11.1023 13.5581C9.68951 13.5581 8.54419 12.4128 8.54419 11C8.54419 9.58718 9.68951 8.44186 11.1023 8.44186C12.5152 8.44186 13.6605 9.58718 13.6605 11ZM15.1954 11C15.1954 13.2605 13.3628 15.093 11.1023 15.093C8.84182 15.093 7.00931 13.2605 7.00931 11C7.00931 8.73949 8.84182 6.90698 11.1023 6.90698C13.3628 6.90698 15.1954 8.73949 15.1954 11Z" fill="#4C9EEB"/>
</svg>
