<svg width="15" height="15" viewBox="0 0 15 15" fill="none" xmlns="http://www.w3.org/2000/svg">
<path d="M12.0455 7.98262C11.7636 8.2118 11.3493 8.16964 11.1194 7.88836C10.8838 7.60018 10.9334 7.17421 11.2289 6.94786L12.4031 6.04848C13.5332 5.05361 13.6427 3.33103 12.6479 2.20098C11.653 1.07093 9.93043 0.961349 8.80038 1.95622L6.52599 3.95855C5.39594 4.95341 5.28636 6.676 6.28123 7.80605C6.64407 8.21819 6.86265 8.41014 7.19812 8.49176C7.51076 8.56782 7.76766 8.82232 7.7364 9.14256C7.73236 9.18398 7.72359 9.2248 7.71026 9.26422L7.70584 9.27729C7.60701 9.5696 7.31852 9.76317 7.0158 9.70337C6.34598 9.57103 5.8891 9.29198 5.32334 8.64935C3.86273 6.99028 4.02361 4.46127 5.68268 3.00066L7.95708 0.998331C9.61615 -0.46228 12.1452 -0.301392 13.6058 1.35768C15.0664 3.01675 14.9055 5.54575 13.2464 7.00636L12.0455 7.98262Z" fill="#687684"/>
<path d="M2.55838 7.01746C2.84028 6.78827 3.25448 6.83041 3.48447 7.11167C3.72009 7.39983 3.67052 7.82581 3.37502 8.05218L2.20085 8.95163C1.07087 9.94657 0.961392 11.6692 1.95633 12.7991C2.95127 13.9291 4.67386 14.0386 5.80384 13.0437L8.07811 11.0412C9.2081 10.0463 9.31757 8.32366 8.32263 7.19368C7.95976 6.78156 7.74117 6.58963 7.40569 6.50803C7.09304 6.43198 6.83613 6.1775 6.86737 5.85726C6.87141 5.81584 6.88018 5.77502 6.89351 5.7356L6.89793 5.72253C6.99674 5.43021 7.28522 5.23662 7.58793 5.29641C8.25776 5.4287 8.71466 5.70772 9.28046 6.35032C10.7412 8.0093 10.5805 10.5383 8.92148 11.999L6.64721 14.0015C4.98823 15.4622 2.45922 15.3015 0.9985 13.6425C-0.462216 11.9835 -0.301492 9.45452 1.35749 7.9938L2.55838 7.01746Z" fill="#687684"/>
</svg>
