<svg width="12" height="14" viewBox="0 0 12 14" fill="none" xmlns="http://www.w3.org/2000/svg">
<path d="M5.51433 13.3582C5.51433 13.5728 5.68828 13.7467 5.90287 13.7467L8.7474 13.7467C9.01563 13.7467 9.23307 13.5293 9.23307 13.261C9.23307 12.9928 9.01563 12.7754 8.7474 12.7754L7.17253 12.7754L11.2887 8.65916C12.2371 7.71082 12.2371 6.17325 11.2887 5.22491L9.09082 3.027C8.90116 2.83733 8.59364 2.83733 8.40397 3.027C8.21431 3.21666 8.21431 3.52418 8.40397 3.71385L10.6019 5.91176C11.1709 6.48077 11.1709 7.4033 10.6019 7.97231L6.48568 12.0885L6.48568 10.5136C6.48568 10.2454 6.26823 10.028 6 10.028C5.73177 10.028 5.51433 10.2454 5.51433 10.5136L5.51433 13.3582Z" fill="black"/>
<path d="M6.48566 0.388541C6.48566 0.173956 6.3117 1.73275e-06 6.09712 1.73275e-06L3.25259 1.38143e-06C2.98436 1.38143e-06 2.76691 0.217446 2.76691 0.485677C2.76691 0.753909 2.98436 0.971353 3.25259 0.971353L4.82746 0.971353L0.711247 5.08756C-0.237093 6.0359 -0.237094 7.57347 0.711246 8.52181L2.90916 10.7197C3.09883 10.9094 3.40634 10.9094 3.59601 10.7197C3.78568 10.5301 3.78568 10.2225 3.59601 10.0329L1.3981 7.83496C0.829091 7.26596 0.829091 6.34342 1.3981 5.77441L5.51431 1.6582L5.51431 3.23307C5.51431 3.5013 5.73175 3.71875 5.99998 3.71875C6.26821 3.71875 6.48566 3.5013 6.48566 3.23307L6.48566 0.388541Z" fill="black"/>
</svg>
