<svg width="15" height="15" viewBox="0 0 15 15" fill="none" xmlns="http://www.w3.org/2000/svg">
<path d="M4.91379 4.91379C4.91379 5.48508 4.4506 5.94828 3.87931 5.94828C3.30802 5.94828 2.84483 5.48508 2.84483 4.91379C2.84483 4.3425 3.30802 3.87931 3.87931 3.87931C4.4506 3.87931 4.91379 4.3425 4.91379 4.91379Z" fill="#687684"/>
<path d="M3.87931 9.31034C4.4506 9.31034 4.91379 8.84715 4.91379 8.27586C4.91379 7.70457 4.4506 7.24138 3.87931 7.24138C3.30802 7.24138 2.84483 7.70457 2.84483 8.27586C2.84483 8.84715 3.30802 9.31034 3.87931 9.31034Z" fill="#687684"/>
<path d="M4.91379 11.3793C4.91379 11.9506 4.4506 12.4138 3.87931 12.4138C3.30802 12.4138 2.84483 11.9506 2.84483 11.3793C2.84483 10.808 3.30802 10.3448 3.87931 10.3448C4.4506 10.3448 4.91379 10.808 4.91379 11.3793Z" fill="#687684"/>
<path d="M7.5 5.94828C8.07129 5.94828 8.53448 5.48508 8.53448 4.91379C8.53448 4.3425 8.07129 3.87931 7.5 3.87931C6.92871 3.87931 6.46552 4.3425 6.46552 4.91379C6.46552 5.48508 6.92871 5.94828 7.5 5.94828Z" fill="#687684"/>
<path d="M8.53448 8.27586C8.53448 8.84715 8.07129 9.31034 7.5 9.31034C6.92871 9.31034 6.46552 8.84715 6.46552 8.27586C6.46552 7.70457 6.92871 7.24138 7.5 7.24138C8.07129 7.24138 8.53448 7.70457 8.53448 8.27586Z" fill="#687684"/>
<path d="M7.5 12.4138C8.07129 12.4138 8.53448 11.9506 8.53448 11.3793C8.53448 10.808 8.07129 10.3448 7.5 10.3448C6.92871 10.3448 6.46552 10.808 6.46552 11.3793C6.46552 11.9506 6.92871 12.4138 7.5 12.4138Z" fill="#687684"/>
<path d="M12.1552 4.91379C12.1552 5.48508 11.692 5.94828 11.1207 5.94828C10.5494 5.94828 10.0862 5.48508 10.0862 4.91379C10.0862 4.3425 10.5494 3.87931 11.1207 3.87931C11.692 3.87931 12.1552 4.3425 12.1552 4.91379Z" fill="#687684"/>
<path d="M11.1207 9.31034C11.692 9.31034 12.1552 8.84715 12.1552 8.27586C12.1552 7.70457 11.692 7.24138 11.1207 7.24138C10.5494 7.24138 10.0862 7.70457 10.0862 8.27586C10.0862 8.84715 10.5494 9.31034 11.1207 9.31034Z" fill="#687684"/>
<path fill-rule="evenodd" clip-rule="evenodd" d="M2.06897 0C0.926387 0 0 0.926261 0 2.06897V12.931C0 14.0737 0.926387 15 2.06897 15H12.931C14.0736 15 15 14.0737 15 12.931V2.06897C15 0.926261 14.0736 0 12.931 0H2.06897ZM12.931 2.58621H2.06897C1.86086 2.58621 1.67144 2.66841 1.53202 2.80215C1.38453 2.94333 1.2931 3.14196 1.2931 3.36207V12.931C1.2931 13.3595 1.64062 13.7069 2.06897 13.7069H12.931C13.3594 13.7069 13.7069 13.3595 13.7069 12.931V3.36207C13.7069 2.9336 13.3594 2.58621 12.931 2.58621Z" fill="#687684"/>
</svg>
