<svg width="414" height="50" viewBox="0 0 414 50" fill="none" xmlns="http://www.w3.org/2000/svg">
<g clip-path="url(#clip0_3_523)">
<g filter="url(#filter0_d_3_523)">
<rect y="0.329987" width="414" height="49.67" fill="white"/>
</g>
<path d="M28 23C28.8284 23 29.5 22.3284 29.5 21.5C29.5 20.6716 28.8284 20 28 20C27.1716 20 26.5 20.6716 26.5 21.5C26.5 22.3284 27.1716 23 28 23Z" fill="black"/>
<path fill-rule="evenodd" clip-rule="evenodd" d="M40 18V27.4393L40.0303 27.4697L40 27.5V32C40 33.1046 39.1046 34 38 34H35L34.9697 34.0303L34.9393 34H24C22.8954 34 22 33.1046 22 32V18C22 16.8954 22.8954 16 24 16H38C39.1046 16 40 16.8954 40 18ZM24 17.5H38C38.2761 17.5 38.5 17.7239 38.5 18V25.9393L36.2012 23.6405C35.5431 22.9824 34.4849 22.9546 33.7931 23.5772L30.0272 26.9665L29.2374 26.1768C28.554 25.4934 27.446 25.4934 26.7626 26.1768L23.5 29.4393V18C23.5 17.7239 23.7239 17.5 24 17.5ZM35.1405 24.7012L38.5 28.0607V32C38.5 32.2761 38.2761 32.5 38 32.5H35.5607L31.0893 28.0286L34.7965 24.6922C34.8954 24.6032 35.0465 24.6072 35.1405 24.7012ZM23.5 31.5V32C23.5 32.2761 23.7239 32.5 24 32.5H33.4393L28.1768 27.2374C28.0791 27.1398 27.9209 27.1398 27.8232 27.2374L23.5303 31.5303L23.5 31.5Z" fill="black"/>
<path fill-rule="evenodd" clip-rule="evenodd" d="M68.5 16.75C68.5 16.3358 68.1642 16 67.75 16C67.3358 16 67 16.3358 67 16.75V33.25C67 33.6642 67.3358 34 67.75 34C68.1642 34 68.5 33.6642 68.5 33.25V31.75H78C78.9665 31.75 79.75 30.9665 79.75 30V27.75H83.5C84.4665 27.75 85.25 26.9665 85.25 26V24C85.25 23.0335 84.4665 22.25 83.5 22.25H82.25V20C82.25 19.0335 81.4665 18.25 80.5 18.25H68.5V16.75ZM68.5 19.75V22.25H80.75V20C80.75 19.8619 80.6381 19.75 80.5 19.75H68.5ZM68.5 23.75V26.25H83.5C83.6381 26.25 83.75 26.1381 83.75 26V24C83.75 23.8619 83.6381 23.75 83.5 23.75H68.5ZM68.5 27.75V30.25H78C78.1381 30.25 78.25 30.1381 78.25 30V27.75H68.5Z" fill="black"/>
<path fill-rule="evenodd" clip-rule="evenodd" d="M125.75 23.75C125.75 25.8211 124.071 27.5 122 27.5C119.929 27.5 118.25 25.8211 118.25 23.75C118.25 21.6789 119.929 20 122 20C124.071 20 125.75 21.6789 125.75 23.75ZM124.25 23.75C124.25 24.9926 123.243 26 122 26C120.757 26 119.75 24.9926 119.75 23.75C119.75 22.5074 120.757 21.5 122 21.5C123.243 21.5 124.25 22.5074 124.25 23.75Z" fill="black"/>
<path fill-rule="evenodd" clip-rule="evenodd" d="M130 24C130 29.5 123 34 122 34C121 34 114 29.5 114 24C114 19.5817 117.582 16 122 16C126.418 16 130 19.5817 130 24ZM128.5 24C128.5 26.1344 127.111 28.2652 125.332 29.984C124.471 30.8171 123.582 31.4897 122.866 31.946C122.508 32.1738 122.212 32.3358 122 32.435C121.788 32.3358 121.492 32.1738 121.134 31.946C120.418 31.4897 119.529 30.8171 118.668 29.984C116.889 28.2652 115.5 26.1344 115.5 24C115.5 20.4101 118.41 17.5 122 17.5C125.59 17.5 128.5 20.4101 128.5 24Z" fill="black"/>
</g>
<defs>
<filter id="filter0_d_3_523" x="0" y="-1.34408e-05" width="414" height="50" filterUnits="userSpaceOnUse" color-interpolation-filters="sRGB">
<feFlood flood-opacity="0" result="BackgroundImageFix"/>
<feColorMatrix in="SourceAlpha" type="matrix" values="0 0 0 0 0 0 0 0 0 0 0 0 0 0 0 0 0 0 127 0" result="hardAlpha"/>
<feOffset dy="-0.33"/>
<feColorMatrix type="matrix" values="0 0 0 0 0.741176 0 0 0 0 0.772549 0 0 0 0 0.803922 0 0 0 1 0"/>
<feBlend mode="normal" in2="BackgroundImageFix" result="effect1_dropShadow_3_523"/>
<feBlend mode="normal" in="SourceGraphic" in2="effect1_dropShadow_3_523" result="shape"/>
</filter>
<clipPath id="clip0_3_523">
<rect width="414" height="50" fill="white"/>
</clipPath>
</defs>
</svg>
