<svg width="18" height="18" viewBox="0 0 18 18" fill="none" xmlns="http://www.w3.org/2000/svg">
<path fill-rule="evenodd" clip-rule="evenodd" d="M0.225946 0.225946C0.527208 -0.0753154 1.01565 -0.0753154 1.31691 0.225946L7.71429 6.62332V2.82857C7.71429 2.40252 8.05967 2.05714 8.48571 2.05714C8.91176 2.05714 9.25714 2.40252 9.25714 2.82857V8.74286C9.25714 9.02689 9.02689 9.25714 8.74286 9.25714H2.82857C2.40252 9.25714 2.05714 8.91176 2.05714 8.48571C2.05714 8.05967 2.40252 7.71429 2.82857 7.71429H6.62332L0.225946 1.31691C-0.0753154 1.01565 -0.0753154 0.527208 0.225946 0.225946ZM10.8 3.85714C10.8 3.43109 11.1454 3.08571 11.5714 3.08571H15.1714C16.7336 3.08571 18 4.35211 18 5.91429V15.1714C18 16.7336 16.7336 18 15.1714 18H5.91429C4.35211 18 3.08571 16.7336 3.08571 15.1714V11.5714C3.08571 11.1454 3.43109 10.8 3.85714 10.8C4.28319 10.8 4.62857 11.1454 4.62857 11.5714V15.1714C4.62857 15.8815 5.20421 16.4571 5.91429 16.4571H15.1714C15.8815 16.4571 16.4571 15.8815 16.4571 15.1714V5.91429C16.4571 5.20421 15.8815 4.62857 15.1714 4.62857H11.5714C11.1454 4.62857 10.8 4.28319 10.8 3.85714Z" fill="white"/>
</svg>
