<svg width="15" height="15" viewBox="0 0 15 15" fill="none" xmlns="http://www.w3.org/2000/svg">
<path d="M1.28775 4.92685C1.14951 3.95939 1.45242 2.94094 2.19674 2.19661C2.94094 1.45242 3.95939 1.14951 4.92685 1.28775C5.51317 0.505894 6.44754 0 7.5 0C8.55246 0 9.48682 0.505894 10.0732 1.28775C11.0406 1.14951 12.0591 1.45242 12.8033 2.19661C13.5476 2.94094 13.8505 3.95939 13.7122 4.92685C14.4941 5.51317 15 6.44754 15 7.5C15 8.55246 14.4941 9.48682 13.7122 10.0732C13.8505 11.0406 13.5476 12.0589 12.8033 12.8033C12.0591 13.5476 11.0406 13.8505 10.0732 13.7122C9.48682 14.4941 8.55246 15 7.5 15C6.44754 15 5.51317 14.4941 4.92685 13.7122C3.95939 13.8505 2.94094 13.5476 2.19674 12.8033C1.45242 12.0589 1.14951 11.0406 1.28775 10.0732C0.505894 9.48682 0 8.55246 0 7.5C0 6.44754 0.505894 5.51317 1.28775 4.92685Z" fill="#4C9EEB"/>
<path d="M4.85751 8.02709L6.43731 9.57024C6.54666 9.67705 6.72541 9.66159 6.8148 9.53759L10.0213 5.08929" stroke="white" stroke-width="1.5" stroke-linecap="round"/>
</svg>
