<svg width="27" height="27" viewBox="0 0 27 27" fill="none" xmlns="http://www.w3.org/2000/svg">
<path fill-rule="evenodd" clip-rule="evenodd" d="M20.1226 14.7736C20.1226 18.2905 17.2716 21.1415 13.7547 21.1415C10.2378 21.1415 7.38679 18.2905 7.38679 14.7736C7.38679 11.2567 10.2378 8.40566 13.7547 8.40566C17.2716 8.40566 20.1226 11.2567 20.1226 14.7736ZM18.5943 14.7736C18.5943 17.4464 16.4276 19.6132 13.7547 19.6132C11.0819 19.6132 8.91509 17.4464 8.91509 14.7736C8.91509 12.1007 11.0819 9.93396 13.7547 9.93396C16.4276 9.93396 18.5943 12.1007 18.5943 14.7736Z" fill="black"/>
<path fill-rule="evenodd" clip-rule="evenodd" d="M13.5 0C16.7404 0 19.5957 1.64911 21.2723 4.15385H24.9231C26.0701 4.15385 27 5.08372 27 6.23077V24.9231C27 26.0701 26.0701 27 24.9231 27H2.07692C0.929871 27 0 26.0701 0 24.9231V6.23077C0 5.08372 0.929871 4.15385 2.07692 4.15385H5.72769C7.4043 1.64911 10.2596 0 13.5 0ZM6.54377 5.68215L6.99772 5.00398C8.40275 2.90497 10.7909 1.5283 13.5 1.5283C16.2091 1.5283 18.5973 2.90497 20.0023 5.00398L20.4562 5.68215H24.9231C25.2261 5.68215 25.4717 5.92777 25.4717 6.23077V24.9231C25.4717 25.2261 25.2261 25.4717 24.9231 25.4717H2.07692C1.77393 25.4717 1.5283 25.2261 1.5283 24.9231V6.23077C1.5283 5.92777 1.77393 5.68215 2.07692 5.68215H6.54377Z" fill="black"/>
</svg>
